<?xml version="1.0" standalone="no"?>
<!DOCTYPE svg PUBLIC "-//W3C//DTD SVG 20010904//EN"
 "http://www.w3.org/TR/2001/REC-SVG-20010904/DTD/svg10.dtd">
<svg version="1.0" xmlns="http://www.w3.org/2000/svg"
 width="700.000000pt" height="700.000000pt" viewBox="0 0 700.000000 700.000000"
 preserveAspectRatio="xMidYMid meet">
<metadata>
Created by potrace 1.11, written by Peter Selinger 2001-2013
</metadata>
<g transform="translate(0.000000,700.000000) scale(0.100000,-0.100000)"
fill="#000000" stroke="none">
<path d="M3285 6994 c-428 -35 -791 -119 -1137 -264 -1090 -458 -1864 -1415
-2087 -2580 -41 -216 -55 -383 -55 -650 0 -483 73 -869 247 -1305 462 -1159
1526 -1992 2757 -2159 346 -47 634 -47 980 0 867 118 1686 581 2232 1263 423
528 672 1121 754 1801 25 200 25 600 0 800 -51 424 -153 772 -336 1145 -525
1071 -1541 1788 -2735 1931 -125 15 -517 26 -620 18z m215 -3136 c271 -453
499 -832 507 -843 11 -17 13 85 11 645 l-3 665 -127 24 -128 25 0 153 0 153
515 0 516 0 -3 -152 -3 -153 -130 -25 -130 -25 -3 -1068 -2 -1067 -250 0 -249
0 -503 838 -503 837 -3 -659 c-1 -469 1 -662 9 -666 6 -4 56 -15 112 -25 162
-28 147 -10 147 -180 l0 -145 -520 0 -520 0 0 149 0 148 118 22 c64 13 125 25
135 27 16 5 17 54 15 897 l-3 892 -130 25 -130 25 -3 140 c-1 76 0 145 2 152
4 10 83 13 384 13 l379 0 493 -822z"/>
</g>
</svg>
